<?xml version="1.0" encoding="UTF-8"?>
<svg id="Layer_1" data-name="Layer 1" xmlns="http://www.w3.org/2000/svg" version="1.1" xmlns:xlink="http://www.w3.org/1999/xlink" viewBox="0 0 1000 1000">
  <defs>
    <style>
      .cls-1 {
        fill: url(#linear-gradient);
      }

      .cls-1, .cls-2, .cls-3, .cls-4 {
        stroke-width: 0px;
      }

      .cls-2 {
        fill: #000d2a;
      }

      .cls-3 {
        fill: #a28aff;
      }

      .cls-4 {
        fill: #9377ff;
      }
    </style>
    <linearGradient id="linear-gradient" x1="80" y1="795.7" x2="936.3" y2="316.7" gradientUnits="userSpaceOnUse">
      <stop offset="0" stop-color="#8464ff"/>
      <stop offset="1" stop-color="#b09bff"/>
    </linearGradient>
  </defs>
  <g id="Shape_9" data-name="Shape 9">
    <path class="cls-1" d="M982.9,297.9c-48.4-88.8-303.6-43.3-570.1,101.8C146.3,544.8-30.6,734.4,17.7,823.2c48.4,88.8,303.6,43.3,570.1-101.8,266.5-145.1,443.4-334.7,395-423.5ZM838.1,443.6c-27.5-44.1-109.8-53.6-248.9-23.6,9.3,4.9-9.5,10.6-3.7,14.8,94.7-15.9,161.9-6.2,172.1,26.2,13.9,44.3-92.4,117.1-237.4,162.6-145,45.5-273.9,46.6-287.8,2.3-10-31.7,33.7-73.7,117.3-114.2,3.8-9.9-1.6-13.6,3.5-21.2-139,58.6-211.3,125.4-195,177.6,18.5,58.8,167.3,65.3,340.8,17.6-198.3,97.6-375.4,128.2-408.8,66.9-36.4-66.9,111.8-217.9,331.1-337.3,219.3-119.3,426.6-161.8,463-94.9,15.6,28.7-2.7,72.9-46.1,123.3Z"/>
  </g>
  <g id="Shape_10" data-name="Shape 10">
    <path class="cls-2" d="M605.9,505.1c-20.2-63.3-87.8-98.3-151-78.2-63.2,20.1-98.1,87.8-78,151.1,5.7,18,15.3,33.7,27.5,46.5,43.6-8.2,129.6-27.9,205.9-65.9,2.5-17.4,1.2-35.6-4.5-53.5Z"/>
  </g>
  <g id="Shape_11" data-name="Shape 11">
    <path class="cls-2" d="M540.6,220.6l-10.7,19.6-19.6,10.7,19.6,10.7,10.7,19.6,10.7-19.6,19.6-10.7-19.6-10.7-10.7-19.6ZM779.8,189.6l-7.2-13.2-7.3,13.2-13.3,7.2,13.3,7.3,7.2,13.2,7.3-13.2,13.3-7.2-13.3-7.3ZM688.1,125.1l-3.6,6.6-6.6,3.6,6.6,3.6,3.6,6.6,3.6-6.6,6.6-3.6-6.6-3.6-3.6-6.6Z"/>
  </g>
  <g id="Shape_12" data-name="Shape 12">
    <path class="cls-2" d="M262.4,306.2l5.1-19.7-19.3,6.4-19.7-5.1,6.4,19.3-5.1,19.7,19.3-6.4,19.7,5.1-6.4-19.3ZM272.8,409.8l-6.5,2.2-6.7-1.7,2.2,6.5-1.7,6.7,6.5-2.2,6.7,1.7-2.2-6.5,1.7-6.7ZM427.6,316.9l1.7-6.7-6.5,2.2-6.7-1.7,2.2,6.5-1.7,6.7,6.5-2.2,6.7,1.7-2.2-6.5Z"/>
  </g>
  <g id="Triangle_1" data-name="Triangle 1">
    <polygon class="cls-4" points="307.2 488.1 334.5 542.3 367.8 491.6 307.2 488.1"/>
  </g>
  <g id="Triangle_1_copy" data-name="Triangle 1 copy">
    <polygon class="cls-3" points="611.7 393.1 563.8 430.5 620.1 453.2 611.7 393.1"/>
  </g>
</svg>