<?xml version="1.0" encoding="UTF-8"?>
<svg id="Logo" xmlns="http://www.w3.org/2000/svg" version="1.1" xmlns:xlink="http://www.w3.org/1999/xlink" viewBox="0 0 637 102">
  <defs>
    <style>
      .cls-1 {
        fill: url(#linear-gradient);
      }

      .cls-1, .cls-2, .cls-3, .cls-4, .cls-5 {
        stroke-width: 0px;
      }

      .cls-2 {
        fill: #000d2a;
      }

      .cls-3 {
        fill: #a28aff;
      }

      .cls-4 {
        fill: url(#linear-gradient-2);
      }

      .cls-5 {
        fill: #9377ff;
      }
    </style>
    <linearGradient id="linear-gradient" x1="523.5" y1="86.8" x2="523.5" y2="47.7" gradientUnits="userSpaceOnUse">
      <stop offset="0" stop-color="#8464ff"/>
      <stop offset="1" stop-color="#b09bff"/>
    </linearGradient>
    <linearGradient id="linear-gradient-2" x1="16.7" y1="88.5" x2="124.3" y2="28.4" xlink:href="#linear-gradient"/>
  </defs>
  <g id="Interstellar_" data-name="Interstellar">
    <g>
      <path class="cls-2" d="M149.7,46v33.7h-8.2v-33.7h8.2Z"/>
      <path class="cls-2" d="M179.4,55.7c1.9,2,2.8,4.8,2.8,8.4v15.6h-8.1v-14.5c0-1.8-.5-3.2-1.4-4.2-.9-1-2.2-1.5-3.7-1.5s-2.8.5-3.7,1.5c-.9,1-1.4,2.4-1.4,4.2v14.5h-8.2v-26.7h8.2v3.5c.8-1.2,1.9-2.1,3.4-2.8,1.4-.7,3-1,4.7-1,3.1,0,5.6,1,7.5,3Z"/>
      <path class="cls-2" d="M202.8,72.7v7h-4.2c-3,0-5.3-.7-7-2.2s-2.5-3.8-2.5-7.1v-10.6h-3.3v-6.8h3.3v-6.5h8.2v6.5h5.4v6.8h-5.4v10.7c0,.8.2,1.4.6,1.7.4.4,1,.5,1.9.5h2.9Z"/>
      <path class="cls-2" d="M232.4,68.3h-18.6c.1,1.7.7,2.9,1.6,3.8.9.9,2.1,1.3,3.5,1.3,2,0,3.5-.9,4.3-2.6h8.7c-.4,1.8-1.3,3.3-2.4,4.7-1.2,1.4-2.6,2.5-4.4,3.3-1.8.8-3.7,1.2-5.9,1.2s-5-.6-7-1.7c-2-1.1-3.6-2.7-4.8-4.8-1.2-2.1-1.7-4.5-1.7-7.3s.6-5.2,1.7-7.3c1.1-2.1,2.7-3.7,4.8-4.8,2-1.1,4.4-1.7,7-1.7s4.9.5,6.9,1.6c2,1.1,3.6,2.6,4.7,4.6,1.1,2,1.7,4.4,1.7,7s0,1.6-.1,2.4ZM224.2,63.7c0-1.4-.5-2.5-1.4-3.4-1-.8-2.2-1.2-3.6-1.2s-2.5.4-3.5,1.2c-.9.8-1.5,1.9-1.7,3.4h10.3Z"/>
      <path class="cls-2" d="M248.7,53.9c1.4-.8,3-1.3,4.8-1.3v8.7h-2.3c-2,0-3.6.4-4.6,1.3-1,.9-1.5,2.4-1.5,4.6v12.4h-8.2v-26.7h8.2v4.5c1-1.5,2.2-2.6,3.6-3.5Z"/>
      <path class="cls-2" d="M262.1,78.8c-1.8-.8-3.3-1.9-4.3-3.3-1.1-1.4-1.6-2.9-1.8-4.7h8.1c0,.9.5,1.7,1.3,2.3.8.6,1.7.9,2.8.9s1.8-.2,2.4-.6c.6-.4.8-.9.8-1.6s-.4-1.3-1.2-1.7c-.8-.4-2.1-.8-3.9-1.2-1.9-.4-3.5-.9-4.8-1.4-1.3-.5-2.4-1.3-3.3-2.3-.9-1.1-1.4-2.5-1.4-4.3s.4-2.9,1.3-4.2c.8-1.3,2.1-2.3,3.7-3,1.6-.7,3.6-1.1,5.9-1.1,3.4,0,6,.8,7.9,2.5,1.9,1.7,3,3.9,3.3,6.6h-7.6c-.1-.9-.5-1.7-1.2-2.2-.7-.5-1.6-.8-2.7-.8s-1.7.2-2.2.6c-.5.4-.8.9-.8,1.5s.4,1.3,1.2,1.7c.8.4,2.1.8,3.8,1.2,2,.5,3.6,1,4.8,1.5,1.2.5,2.3,1.3,3.3,2.4.9,1.1,1.4,2.6,1.5,4.4,0,1.6-.4,3-1.3,4.2-.9,1.2-2.1,2.2-3.8,2.9-1.6.7-3.6,1.1-5.7,1.1s-4.4-.4-6.2-1.2Z"/>
      <path class="cls-2" d="M299.1,72.7v7h-4.2c-3,0-5.3-.7-7-2.2s-2.5-3.8-2.5-7.1v-10.6h-3.3v-6.8h3.3v-6.5h8.2v6.5h5.4v6.8h-5.4v10.7c0,.8.2,1.4.6,1.7.4.4,1,.5,1.9.5h2.9Z"/>
      <path class="cls-2" d="M328.7,68.3h-18.6c.1,1.7.7,2.9,1.6,3.8.9.9,2.1,1.3,3.5,1.3,2,0,3.5-.9,4.3-2.6h8.7c-.4,1.8-1.3,3.3-2.4,4.7-1.2,1.4-2.6,2.5-4.4,3.3-1.8.8-3.7,1.2-5.9,1.2s-5-.6-7-1.7c-2-1.1-3.6-2.7-4.8-4.8-1.2-2.1-1.7-4.5-1.7-7.3s.6-5.2,1.7-7.3c1.1-2.1,2.7-3.7,4.8-4.8,2-1.1,4.4-1.7,7-1.7s4.9.5,6.9,1.6c2,1.1,3.6,2.6,4.7,4.6,1.1,2,1.7,4.4,1.7,7s0,1.6-.1,2.4ZM320.5,63.7c0-1.4-.5-2.5-1.4-3.4-1-.8-2.2-1.2-3.6-1.2s-2.5.4-3.5,1.2c-.9.8-1.5,1.9-1.7,3.4h10.3Z"/>
      <path class="cls-2" d="M341.4,44.2v35.5h-8.2v-35.5h8.2Z"/>
      <path class="cls-2" d="M355.5,44.2v35.5h-8.2v-35.5h8.2Z"/>
      <path class="cls-2" d="M361.4,59c1-2.1,2.5-3.7,4.2-4.8,1.8-1.1,3.8-1.7,6-1.7s3.5.4,5,1.2,2.5,1.8,3.3,3v-3.8h8.2v26.7h-8.2v-3.8c-.8,1.2-1.9,2.3-3.3,3-1.4.8-3.1,1.2-5,1.2s-4.2-.6-5.9-1.7c-1.8-1.1-3.2-2.7-4.2-4.8-1-2.1-1.6-4.5-1.6-7.3s.5-5.2,1.6-7.2ZM378.1,61.4c-1.1-1.2-2.5-1.8-4.1-1.8s-3,.6-4.1,1.7c-1.1,1.2-1.7,2.8-1.7,4.8s.6,3.7,1.7,4.9c1.1,1.2,2.5,1.8,4.1,1.8s3-.6,4.1-1.8c1.1-1.2,1.7-2.8,1.7-4.8s-.6-3.7-1.7-4.8Z"/>
      <path class="cls-2" d="M405.8,53.9c1.4-.8,3-1.3,4.8-1.3v8.7h-2.3c-2,0-3.6.4-4.6,1.3-1,.9-1.5,2.4-1.5,4.6v12.4h-8.2v-26.7h8.2v4.5c1-1.5,2.2-2.6,3.6-3.5Z"/>
    </g>
  </g>
  <g id="Logistics">
    <path class="cls-1" d="M426.1,73.8h10.7v6.3h-18.9v-33.7h8.2v27.3ZM445.9,78.9c-2.1-1.1-3.7-2.7-4.9-4.8-1.2-2.1-1.8-4.5-1.8-7.3s.6-5.2,1.8-7.3c1.2-2.1,2.9-3.7,5-4.8,2.1-1.1,4.5-1.7,7.1-1.7s5,.6,7.1,1.7c2.1,1.1,3.8,2.7,5,4.8,1.2,2.1,1.8,4.5,1.8,7.3s-.6,5.2-1.8,7.3c-1.2,2.1-2.9,3.7-5,4.8-2.1,1.1-4.5,1.7-7.1,1.7s-5-.6-7.1-1.7ZM456.9,71.7c1.1-1.2,1.7-2.8,1.7-4.9s-.5-3.8-1.6-4.9c-1.1-1.2-2.4-1.7-4-1.7s-2.9.6-4,1.7c-1.1,1.1-1.6,2.8-1.6,5s.5,3.8,1.6,4.9c1,1.2,2.3,1.7,3.9,1.7s2.9-.6,4-1.7ZM486.4,54.2c1.4.8,2.5,1.8,3.3,3v-3.8h8.2v26.7c0,2.5-.5,4.7-1.5,6.7-1,2-2.5,3.6-4.5,4.8-2,1.2-4.5,1.8-7.5,1.8s-7.2-.9-9.6-2.8c-2.5-1.9-3.9-4.4-4.2-7.6h8.1c.3,1,.9,1.8,1.8,2.4,1,.6,2.1.9,3.5.9s3-.5,4-1.5c1-1,1.5-2.5,1.5-4.7v-3.8c-.8,1.2-1.9,2.3-3.3,3-1.4.8-3.1,1.2-4.9,1.2s-4.2-.6-6-1.7c-1.8-1.1-3.2-2.7-4.2-4.8-1-2.1-1.6-4.5-1.6-7.3s.5-5.2,1.6-7.2c1-2.1,2.5-3.7,4.2-4.8,1.8-1.1,3.8-1.7,6-1.7s3.5.4,5,1.2ZM488,61.9c-1.1-1.2-2.5-1.8-4.1-1.8s-3,.6-4.1,1.7c-1.1,1.2-1.7,2.8-1.7,4.8s.6,3.7,1.7,4.9c1.1,1.2,2.5,1.8,4.1,1.8s3-.6,4.1-1.8c1.1-1.2,1.7-2.8,1.7-4.8s-.6-3.7-1.7-4.8ZM504.5,49.4c-.9-.8-1.4-1.9-1.4-3.1s.5-2.3,1.4-3.2,2.1-1.3,3.5-1.3,2.6.4,3.5,1.3c.9.8,1.4,1.9,1.4,3.2s-.5,2.3-1.4,3.1c-.9.8-2.1,1.3-3.5,1.3s-2.6-.4-3.5-1.3ZM512.1,53.4v26.7h-8.2v-26.7h8.2ZM522.6,79.3c-1.8-.8-3.3-1.9-4.3-3.3-1.1-1.4-1.6-2.9-1.8-4.7h8.1c0,.9.5,1.7,1.3,2.3.8.6,1.7.9,2.8.9s1.8-.2,2.4-.6c.6-.4.8-.9.8-1.6s-.4-1.3-1.2-1.7c-.8-.4-2.1-.8-3.9-1.2-1.9-.4-3.5-.9-4.8-1.4-1.3-.5-2.4-1.3-3.3-2.3-.9-1.1-1.4-2.5-1.4-4.3s.4-2.9,1.3-4.2,2.1-2.3,3.7-3c1.6-.7,3.6-1.1,5.9-1.1,3.4,0,6,.8,7.9,2.5,1.9,1.7,3,3.9,3.3,6.6h-7.6c-.1-.9-.5-1.7-1.2-2.2-.7-.5-1.6-.8-2.7-.8s-1.7.2-2.2.6c-.5.4-.8.9-.8,1.5s.4,1.3,1.2,1.7c.8.4,2.1.8,3.8,1.2,2,.5,3.6,1,4.8,1.5,1.2.5,2.3,1.3,3.3,2.4.9,1.1,1.4,2.6,1.5,4.4,0,1.6-.4,3-1.3,4.2-.9,1.2-2.1,2.2-3.8,2.9-1.6.7-3.6,1.1-5.7,1.1s-4.4-.4-6.2-1.2ZM559.7,73.2v7h-4.2c-3,0-5.3-.7-7-2.2-1.7-1.5-2.5-3.8-2.5-7.1v-10.6h-3.3v-6.8h3.3v-6.5h8.2v6.5h5.4v6.8h-5.4v10.7c0,.8.2,1.4.6,1.7.4.4,1,.5,1.9.5h2.9ZM564.8,49.4c-.9-.8-1.4-1.9-1.4-3.1s.5-2.3,1.4-3.2,2.1-1.3,3.5-1.3,2.6.4,3.5,1.3c.9.8,1.4,1.9,1.4,3.2s-.5,2.3-1.4,3.1c-.9.8-2.1,1.3-3.5,1.3s-2.6-.4-3.5-1.3ZM572.4,53.4v26.7h-8.2v-26.7h8.2ZM578.4,59.5c1.1-2.1,2.7-3.7,4.7-4.8,2-1.1,4.4-1.7,7-1.7s6.2.9,8.4,2.6c2.3,1.8,3.7,4.2,4.4,7.4h-8.7c-.7-2-2.2-3.1-4.3-3.1s-2.7.6-3.6,1.7c-.9,1.2-1.3,2.8-1.3,5s.4,3.8,1.3,5c.9,1.2,2.1,1.8,3.6,1.8s3.5-1,4.3-3.1h8.7c-.7,3.1-2.2,5.6-4.5,7.4-2.3,1.8-5.1,2.7-8.4,2.7s-4.9-.6-7-1.7c-2-1.1-3.6-2.7-4.7-4.8-1.1-2.1-1.7-4.5-1.7-7.3s.6-5.2,1.7-7.3ZM612,79.3c-1.8-.8-3.3-1.9-4.3-3.3-1.1-1.4-1.6-2.9-1.8-4.7h8.1c0,.9.5,1.7,1.3,2.3.8.6,1.7.9,2.8.9s1.8-.2,2.4-.6c.6-.4.8-.9.8-1.6s-.4-1.3-1.2-1.7c-.8-.4-2.1-.8-3.9-1.2-1.9-.4-3.5-.9-4.8-1.4-1.3-.5-2.4-1.3-3.3-2.3-.9-1.1-1.4-2.5-1.4-4.3s.4-2.9,1.3-4.2,2.1-2.3,3.7-3c1.6-.7,3.6-1.1,5.9-1.1,3.4,0,6,.8,7.9,2.5,1.9,1.7,3,3.9,3.3,6.6h-7.6c-.1-.9-.5-1.7-1.2-2.2-.7-.5-1.6-.8-2.7-.8s-1.7.2-2.2.6c-.5.4-.8.9-.8,1.5s.4,1.3,1.2,1.7c.8.4,2.1.8,3.8,1.2,2,.5,3.6,1,4.8,1.5,1.2.5,2.3,1.3,3.3,2.4.9,1.1,1.4,2.6,1.5,4.4,0,1.6-.4,3-1.3,4.2-.9,1.2-2.1,2.2-3.8,2.9-1.6.7-3.6,1.1-5.7,1.1s-4.4-.4-6.2-1.2Z"/>
  </g>
  <g id="Shape_9" data-name="Shape 9">
    <path class="cls-4" d="M130.1,26c-6.1-11.2-38.1-5.4-71.6,12.8C25.1,57,2.9,80.8,8.9,92c6.1,11.2,38.1,5.4,71.6-12.8,33.5-18.2,55.7-42,49.6-53.2ZM111.9,44.3c-3.4-5.5-13.8-6.7-31.3-3,1.2.6-1.2,1.3-.5,1.9,11.9-2,20.3-.8,21.6,3.3,1.7,5.6-11.6,14.7-29.8,20.4-18.2,5.7-34.4,5.8-36.1.3-1.3-4,4.2-9.3,14.7-14.3.5-1.2-.2-1.7.4-2.7-17.5,7.4-26.5,15.8-24.5,22.3,2.3,7.4,21,8.2,42.8,2.2-24.9,12.3-47.1,16.1-51.3,8.4-4.6-8.4,14-27.4,41.6-42.4,27.5-15,53.6-20.3,58.1-11.9,2,3.6-.3,9.1-5.8,15.5Z"/>
  </g>
  <g id="Shape_10" data-name="Shape 10">
    <path class="cls-2" d="M82.8,52.1c-2.5-8-11-12.3-19-9.8-7.9,2.5-12.3,11-9.8,19,.7,2.3,1.9,4.2,3.5,5.8,5.5-1,16.3-3.5,25.9-8.3.3-2.2.1-4.5-.6-6.7Z"/>
  </g>
  <g id="Shape_11" data-name="Shape 11">
    <path class="cls-2" d="M74.6,16.3l-1.3,2.5-2.5,1.3,2.5,1.3,1.3,2.5,1.3-2.5,2.5-1.3-2.5-1.3-1.3-2.5ZM104.6,12.4l-.9-1.7-.9,1.7-1.7.9,1.7.9.9,1.7.9-1.7,1.7-.9-1.7-.9ZM93.1,4.3l-.5.8-.8.5.8.5.5.8.5-.8.8-.5-.8-.5-.5-.8Z"/>
  </g>
  <g id="Shape_12" data-name="Shape 12">
    <path class="cls-2" d="M39.6,27.1l.6-2.5-2.4.8-2.5-.6.8,2.4-.6,2.5,2.4-.8,2.5.6-.8-2.4ZM41,40.1l-.8.3-.8-.2.3.8-.2.8.8-.3.8.2-.3-.8.2-.8ZM60.4,28.4l.2-.8-.8.3-.8-.2.3.8-.2.8.8-.3.8.2-.3-.8Z"/>
  </g>
  <g id="Triangle_1" data-name="Triangle 1">
    <polygon class="cls-5" points="45.3 49.9 48.7 56.7 52.9 50.4 45.3 49.9"/>
  </g>
  <g id="Triangle_1_copy" data-name="Triangle 1 copy">
    <polygon class="cls-3" points="83.5 38 77.5 42.7 84.6 45.5 83.5 38"/>
  </g>
</svg>